<svg xmlns="http://www.w3.org/2000/svg" width="44" height="43" viewBox="0 0 44 43">
  <defs>
    <style>
      .cls-1 {
        fill: #fff;
        fill-rule: evenodd;
      }
    </style>
  </defs>
  <path id="reload" class="cls-1" d="M4132.2,5545a1.779,1.779,0,0,0-1.87,1.74,18.3,18.3,0,0,1-9.94,15.71c-8.98,4.8-19.47.49-23.49-5.36l5.67,1.15a1.8,1.8,0,0,0,2.15-1.37,1.773,1.773,0,0,0-1.4-2.1l-11.15-2.28a1.833,1.833,0,0,0-2.15,2.01l1.4,10.96a1.846,1.846,0,0,0,3.66-.46l-0.66-5.34c9.11,10.65,20.68,9.16,27.65,6.08a21.667,21.667,0,0,0,11.9-18.91A1.768,1.768,0,0,0,4132.2,5545Zm-40.41,3a1.779,1.779,0,0,0,1.87-1.74,18.285,18.285,0,0,1,9.94-15.71c8.98-4.81,19.47-.49,23.49,5.35l-5.67-1.15a1.812,1.812,0,0,0-2.15,1.37,1.764,1.764,0,0,0,1.4,2.1l11.16,2.28a1.828,1.828,0,0,0,2.15-2.01l-1.4-10.95a1.845,1.845,0,0,0-3.66.45l0.65,5.35c-9.11-10.64-20.68-9.17-27.65-6.08a21.665,21.665,0,0,0-11.91,18.91A1.776,1.776,0,0,0,4091.79,5548Zm20.02,1.36a1.785,1.785,0,0,1,.52,2.37,1.562,1.562,0,0,1-2.23.55,1.775,1.775,0,0,1-.52-2.36A1.565,1.565,0,0,1,4111.81,5549.36Zm4.5,0.11c-0.01-.04-0.02-0.07-0.03-0.1l-0.03-.11c0-.02-0.01-0.03-0.01-0.05a5.276,5.276,0,0,0-6.3-3.93l-0.32.08-0.45.11a1.088,1.088,0,0,0-.75,1.3,1,1,0,0,0,1.21.8l0.78-.19a3.264,3.264,0,0,1,3.91,2.58l0.14,0.58a1,1,0,0,0,1.21.79,0.969,0.969,0,0,0,.63-0.47,1.147,1.147,0,0,0,.13-0.81Zm3.4-.26-0.11-.49v-0.01l-0.09-.39a0.6,0.6,0,0,0-.06-0.19,8.8,8.8,0,0,0-10.27-6.42,0.17,0.17,0,0,1-.07.01l-0.83.21a0.978,0.978,0,0,0-.69,1.18,0.925,0.925,0,0,0,1.11.74l0.84-.21,0.01-.01a6.963,6.963,0,0,1,8.2,5.33l0.15,0.7a0.94,0.94,0,0,0,1.12.73A1,1,0,0,0,4119.71,5549.21Z" transform="translate(-4090 -5525)"/>
</svg>
