<svg xmlns="http://www.w3.org/2000/svg" width="40" height="30" viewBox="0 0 40 30">
  <defs>
    <style>
      .cls-1 {
        fill: #fff;
        fill-rule: evenodd;
      }
    </style>
  </defs>
  <path id="sms" class="cls-1" d="M3713.82,5679.01h-37.64a1.174,1.174,0,0,1-1.18-1.17v-23.81a1.171,1.171,0,0,1,.57-1,1.2,1.2,0,0,1,1.16-.03l18.17,9.62,15.36-11.3h-34.08a1.165,1.165,0,1,1,0-2.33h37.71a1.42,1.42,0,0,1,.46.12,1.2,1.2,0,0,1,.38.3,1.278,1.278,0,0,1,.21.38h0a1.256,1.256,0,0,1,.06.38v27.67A1.174,1.174,0,0,1,3713.82,5679.01Zm-36.47-2.33h35.3v-24.21l-16.95,12.46a1.2,1.2,0,0,1-1.26.09l-17.09-9.05v20.71Zm29.13-3.3a0.923,0.923,0,0,1-.56-0.19l-6.27-4.61a0.921,0.921,0,0,1-.2-1.3,0.952,0.952,0,0,1,1.32-.2l6.27,4.62a0.92,0.92,0,0,1,.2,1.3A0.947,0.947,0,0,1,3706.48,5673.38Zm-22.95,0a0.947,0.947,0,0,1-.76-0.38,0.92,0.92,0,0,1,.2-1.3l6.26-4.62a0.952,0.952,0,0,1,1.32.2,0.928,0.928,0,0,1-.19,1.3l-6.27,4.61A0.923,0.923,0,0,1,3683.53,5673.38Z" transform="translate(-3675 -5649)"/>
</svg>
