<svg xmlns="http://www.w3.org/2000/svg" width="41" height="39" viewBox="0 0 41 39">
  <defs>
    <style>
      .cls-1 {
        fill: #fff;
        fill-rule: evenodd;
      }
    </style>
  </defs>
  <path id="bank" class="cls-1" d="M3701.81,5866.01h-26.63a1.208,1.208,0,0,1-1.21-1.21v-21.59a1.205,1.205,0,1,1,2.41,0v20.38h24.23v-20.38a1.205,1.205,0,1,1,2.41,0v21.59A1.208,1.208,0,0,1,3701.81,5866.01Zm5.98-22.8a1.22,1.22,0,0,1-.7-0.23l-18.59-13.3-18.6,13.3a1.207,1.207,0,0,1-1.41-1.96l19.3-13.8a1.217,1.217,0,0,1,1.41,0l19.3,13.8A1.213,1.213,0,0,1,3707.79,5843.21Zm-14.46,8.36a6.228,6.228,0,0,0-2.35-1.5c-0.95-.35-1.9-0.7-2.85-1.06-1.34-.55-2.01-1.31-2.01-2.29a2.422,2.422,0,0,1,.88-1.82,2.607,2.607,0,0,1,1.86-.67,5.9,5.9,0,0,1,2.12.68,4.55,4.55,0,0,0,1.17.44,0.846,0.846,0,0,0,.98-0.93c0-.69-0.54-1.22-1.63-1.59a7.468,7.468,0,0,0-2.48-.42,5.04,5.04,0,0,0-4.36,2.17,3.931,3.931,0,0,0-.74,2.32,3.512,3.512,0,0,0,1.36,2.95,6.335,6.335,0,0,0,1.53.93c0.72,0.25,1.44.51,2.16,0.77a6.8,6.8,0,0,1,2.09,1.08,2.513,2.513,0,0,1,.95,1.97,3.27,3.27,0,0,1-.93,2.34,2.991,2.991,0,0,1-2.26.98,6.166,6.166,0,0,1-2.9-.72c-0.29-.17-0.5-0.3-0.64-0.39a1.412,1.412,0,0,0-.6-0.19,0.885,0.885,0,0,0-.67.29,1,1,0,0,0-.26.69c0,0.73.64,1.3,1.94,1.71a9.511,9.511,0,0,0,2.87.46,5.878,5.878,0,0,0,4.05-1.43,5,5,0,0,0,1.69-3.92,4.136,4.136,0,0,0-.97-2.85h0Zm-4.49-11.91a1.026,1.026,0,0,1,1.02,1.03v20.5a1.025,1.025,0,1,1-2.05,0v-20.5A1.029,1.029,0,0,1,3688.84,5839.66Z" transform="translate(-3668 -5827)"/>
</svg>
