<svg xmlns="http://www.w3.org/2000/svg" width="42" height="41.97" viewBox="0 0 42 41.97">
  <defs>
    <style>
      .cls-1 {
        fill: #fff;
        fill-rule: evenodd;
      }
    </style>
  </defs>
  <path id="close" class="cls-1" d="M2842.52,1803.54a1.835,1.835,0,0,1,2.63,0l37.61,38.2a1.914,1.914,0,0,1,0,2.68,1.847,1.847,0,0,1-2.64,0l-37.6-38.2A1.914,1.914,0,0,1,2842.52,1803.54Zm0.66,38.2,37.6-38.2a1.847,1.847,0,0,1,2.64,0,1.914,1.914,0,0,1,0,2.68l-37.61,38.2a1.835,1.835,0,0,1-2.63,0A1.914,1.914,0,0,1,2843.18,1841.74Z" transform="translate(-2841.97 -1803)"/>
</svg>
