<svg xmlns="http://www.w3.org/2000/svg" width="37" height="37" viewBox="0 0 37 37">
  <defs>
    <style>
      .cls-1 {
        fill: #fff;
        fill-rule: evenodd;
      }
    </style>
  </defs>
  <path id="coin" class="cls-1" d="M4909.5,5642a18.5,18.5,0,1,0,18.5,18.5A18.522,18.522,0,0,0,4909.5,5642Zm0,34.56a16.065,16.065,0,1,1,16.06-16.06A16.081,16.081,0,0,1,4909.5,5676.56Zm1.22-17.15v-6.91a3.385,3.385,0,0,1,1.7,1.36,1.22,1.22,0,0,0,2.04-1.34,5.939,5.939,0,0,0-3.74-2.55v-1.93a1.22,1.22,0,0,0-2.44,0v1.93a5.936,5.936,0,0,0,0,11.62v6.91a3.45,3.45,0,0,1-1.71-1.36,1.216,1.216,0,0,0-2.03,1.34,5.939,5.939,0,0,0,3.74,2.55v1.93a1.22,1.22,0,0,0,2.44,0v-1.93A5.936,5.936,0,0,0,4910.72,5659.41Zm-4.73-3.63a3.5,3.5,0,0,1,2.29-3.28v6.56A3.509,3.509,0,0,1,4905.99,5655.78Zm4.73,12.72v-6.56A3.494,3.494,0,0,1,4910.72,5668.5Z" transform="translate(-4891 -5642)"/>
</svg>
