<svg xmlns="http://www.w3.org/2000/svg" width="41" height="30" viewBox="0 0 41 30">
  <defs>
    <style>
      .cls-1 {
        fill: #fff;
        fill-rule: evenodd;
      }
    </style>
  </defs>
  <path id="card" class="cls-1" d="M3709.38,5772h-33.76a3.628,3.628,0,0,1-3.62-3.63v-22.75a3.628,3.628,0,0,1,3.62-3.63h33.76a3.628,3.628,0,0,1,3.62,3.63v22.75A3.628,3.628,0,0,1,3709.38,5772Zm-33.76-27.59a1.208,1.208,0,0,0-1.21,1.21v22.75a1.208,1.208,0,0,0,1.21,1.21h33.76a1.208,1.208,0,0,0,1.21-1.21v-22.75a1.208,1.208,0,0,0-1.21-1.21h-33.76Zm2.88,5.72h28a2.4,2.4,0,1,1,0,4.79h-28A2.4,2.4,0,1,1,3678.5,5750.13Z" transform="translate(-3672 -5742)"/>
</svg>
